<svg width="90" height="40" viewBox="0 0 90 40" fill="none" xmlns="http://www.w3.org/2000/svg">
<path fill-rule="evenodd" clip-rule="evenodd" d="M87.2278 39.9679C86.4864 39.9679 85.8417 39.743 85.3259 39.3253C84.7779 38.8755 83.8754 37.6867 82.5537 35.7269L82.5215 35.6948L81.2321 33.7028L80.1039 33.7349H79.0723V38.6185C79.0723 39.004 79.1368 39.2932 79.2335 39.4538C79.3302 39.6145 79.5881 39.7108 79.9749 39.7108V39.8394H76.687V39.7108C77.106 39.6787 77.3639 39.6145 77.4606 39.4538C77.5573 39.2932 77.6218 38.9719 77.6218 38.49V28.3373C77.6218 28.0161 77.5895 27.7269 77.4928 27.502C77.3961 27.2771 77.1382 27.1807 76.687 27.1807V27.0522H80.3295C81.2643 27.0522 81.909 27.0843 82.3281 27.1165C82.7471 27.1486 83.1662 27.2771 83.5852 27.5341C84.0043 27.759 84.3266 28.0803 84.5523 28.4659C84.7779 28.8514 84.8746 29.3333 84.8746 29.9116C84.8746 30.5542 84.6812 31.1647 84.2944 31.7751C83.9076 32.3534 83.3596 32.8675 82.6504 33.253L83.553 34.6345C83.7464 34.988 84.2622 35.7269 85.1325 36.9157C85.9706 38.1044 86.6476 38.8112 87.0989 39.0683C87.5501 39.3253 88.0014 39.4538 88.4527 39.4538C88.8718 39.4538 89.3875 39.2932 89.9355 38.9719L90 39.1325C89.2264 39.6787 88.3238 39.9679 87.2278 39.9679ZM82.7471 32.6426C83.2629 32.1285 83.5208 31.4859 83.5208 30.6827C83.5208 29.8795 83.2629 29.1406 82.7794 28.4337C82.2636 27.7269 81.3933 27.3735 80.1361 27.3735H79.0723V33.3815H80.4262C81.4577 33.3815 82.2314 33.1245 82.7471 32.6426ZM86.7443 10.1205C86.841 10.3454 86.9699 10.5703 87.0666 10.7952C86.7443 10.6667 86.4219 10.5382 86.0996 10.4096C86.1963 10.6024 86.293 10.8273 86.3574 11.0201C86.4219 11.245 86.4541 11.4699 86.5186 11.6948C86.2607 11.4056 85.9062 11.1807 85.4871 11.0201C85.616 11.2129 85.745 11.4378 85.8739 11.6305C86.0673 11.9518 86.0351 12.3695 86.1318 12.755C85.9062 12.4659 85.6805 12.1767 85.3582 11.9839C85.4549 12.5301 85.4549 13.0442 85.4226 13.5904C84.5523 11.8875 84.4878 11.8554 84.3589 12.0161C83.7786 13.2048 84.101 13.2048 83.6175 12.1446C83.6175 12.3695 83.2629 12.755 83.1339 12.8835C82.9405 13.0442 82.6182 13.1406 82.4248 13.2691L82.6504 12.6908C82.8116 12.3052 82.8438 11.9518 82.7794 11.6948L82.1024 12.2088C81.7478 12.4659 81.49 12.8193 81.361 12.9799L80.9097 13.6225C80.8775 13.6867 80.813 13.7831 80.7808 13.8474L81.1999 14.3293C81.4577 14.6506 81.7156 15.1004 81.7478 15.5181C81.7801 15.8394 81.7478 16.3855 81.6511 16.7068C81.5867 16.8675 81.5544 16.8675 81.49 16.996C81.4577 17.0281 81.361 17.6064 81.361 17.7349C81.2643 18.1847 80.8775 18.4418 80.4585 18.2169C80.394 18.1847 80.3617 18.1847 80.3617 18.0884C80.4262 18.0884 80.6196 18.1847 80.6196 18.0562L80.5874 17.9598C80.5229 17.7992 80.5229 17.6707 80.4907 17.51C80.4585 17.4458 80.394 17.2851 80.3295 17.1888L80.1361 16.8996L80.1039 17.0924C80.0394 17.2209 80.1361 17.51 80.0716 17.6707C80.0072 17.6386 79.9427 17.51 79.8782 17.4458C79.8138 17.3494 79.8138 17.253 79.8138 17.1245C79.8138 16.8353 79.6848 16.739 79.5881 16.5462C79.3625 16.5462 78.4921 16.739 78.202 16.8032C78.1053 16.8353 78.1375 16.8353 78.1053 16.9317C78.0086 17.3815 77.7507 17.8313 77.4284 18.1205C77.4284 18.0884 77.4284 18.0562 77.4284 18.0241L77.3961 17.9598C77.2672 18.0562 77.3639 18.1526 77.4606 18.249C77.5573 18.4096 77.6862 18.506 77.8152 18.6024C77.9441 18.6988 77.8152 18.6345 77.8797 18.7309C77.9119 18.7631 78.0731 18.9237 78.1053 18.9558C78.0731 18.988 78.0731 18.988 78.0408 19.0201C78.0731 19.0522 78.202 19.1807 78.202 19.245L78.0731 19.2129C78.1053 19.3414 78.202 19.4056 78.1698 19.502L78.0731 19.5341C78.0731 19.6305 78.1375 19.7269 78.1698 19.8233C78.202 19.9197 78.2665 19.9839 78.2987 20.0803C78.202 20.0482 78.2665 20.0482 78.202 20.0482C78.2342 20.1125 78.3954 20.3374 78.4599 20.3695C78.5888 20.498 78.6855 20.5301 78.8145 20.5944C79.0079 20.6908 78.9112 20.8193 79.2013 20.755C79.4592 20.6908 79.3947 20.498 79.5881 20.6586C79.6848 20.6265 79.717 20.5944 79.8138 20.5623C79.9427 20.5623 79.9427 20.6265 80.0072 20.6908C80.0394 20.6586 80.0716 20.6586 80.1361 20.6586C80.2328 20.6586 80.2006 20.6908 80.265 20.6908C80.2973 20.6908 80.394 20.6265 80.5229 20.6265C80.6841 20.6265 80.9097 20.7229 80.9097 20.9157C80.7486 20.8835 80.6841 20.7229 80.4907 20.8514C80.5229 20.9157 80.7486 21.1084 80.265 21.2048C80.1039 21.2369 80.2973 21.2691 79.9427 21.2369C79.6526 21.5582 79.6203 21.3012 79.3947 21.3655C79.298 21.3976 79.298 21.3333 79.2013 21.3012C79.0723 21.3655 79.1046 21.3976 78.9112 21.3333C78.7178 21.3012 78.7178 21.494 78.4921 21.5904C78.4276 21.6225 78.3632 21.6867 78.3309 21.751C78.2665 21.8474 78.2665 21.8795 78.202 21.9759C78.1698 22.0402 78.0731 22.1044 78.0086 22.1365C77.7507 22.2329 77.7185 21.9116 77.654 21.8153C77.4284 21.7831 77.3317 22.0723 77.3961 22.2972C77.3961 22.3614 77.5251 22.49 77.5573 22.5221C77.6218 22.5863 77.7185 22.5863 77.8474 22.5863C78.0408 22.5863 78.0086 22.5863 78.1375 22.49C78.2987 22.3614 78.3309 22.49 78.3954 22.5221C78.5243 22.5542 78.7822 22.3293 78.9112 22.6185C78.9756 22.6185 78.9756 22.5863 79.0723 22.5863C79.169 22.5863 79.1691 22.6185 79.2013 22.6506C79.2335 22.6506 79.3947 22.5863 79.5236 22.6185C79.717 22.6506 79.9427 22.8112 79.9427 22.9719C79.717 22.9398 79.7815 22.7791 79.4269 22.8112C79.4269 22.9076 79.5559 22.9398 79.4914 23.0361C79.4592 23.1004 79.3625 23.1325 79.298 23.1325C79.2013 23.1647 79.1046 23.1325 79.0079 23.1647C78.8467 23.1968 78.8467 23.1647 78.7178 23.1647C78.5888 23.1647 78.5244 23.3574 78.2342 23.261C78.1053 23.2289 78.1698 23.1968 78.0086 23.1968C77.8797 23.1968 77.8796 23.1325 77.8152 23.1004C77.6862 23.1325 77.6218 23.1968 77.4606 23.1004C77.3639 23.0361 77.2672 23.1004 77.1705 23.1647C76.9126 23.3574 76.8804 23.2932 76.7514 23.3574C76.7192 23.3896 76.6547 23.3896 76.6225 23.4217C76.5903 23.4538 76.558 23.4859 76.5258 23.5502C76.4935 23.5823 76.4613 23.6145 76.3968 23.6466C76.139 23.9036 75.7199 23.9357 75.7199 23.4217C75.5265 23.3896 75.4298 23.4538 75.3331 23.5823C75.2364 23.7751 75.2686 23.8072 75.2364 24.0321C75.1074 23.9679 75.1074 23.8394 75.1074 23.6787C75.1074 23.1647 75.4943 23.1647 75.6877 23.0683C75.7521 23.0361 75.7521 23.004 75.8166 23.004C76.01 22.9398 76.4291 22.9398 76.3324 22.6185C76.3001 22.49 76.0423 22.1365 75.9133 22.1365C75.8488 22.1687 75.7844 22.3614 75.7521 22.3614V22.2651H75.6232L75.5587 22.0402C75.4943 22.0723 75.5265 22.1044 75.462 22.1365C75.3976 22.0402 74.7529 20.9478 74.6562 20.8835C74.6239 20.755 74.5594 20.6265 74.5272 20.498C74.3016 20.9478 74.1404 21.4297 73.818 21.8153C73.399 22.3293 73.1411 22.5221 71.8517 22.6506C72.2385 22.4257 72.6576 22.1687 72.851 21.7189C72.5609 21.8795 72.1741 21.9438 71.8195 22.008C72.2385 21.751 72.5931 21.4297 72.7865 20.9799C72.5286 21.1727 72.2385 21.3012 71.9162 21.3655C72.2063 21.0442 72.4319 20.6908 72.5609 20.2731C72.2708 20.5944 71.8839 20.8514 71.4327 21.0763C71.6583 20.7229 71.9484 20.498 72.1418 20.1124C72.2708 19.8876 72.4964 19.9839 72.4642 19.759C72.4642 19.7269 72.4642 19.6948 72.4642 19.6627C72.3675 19.6948 72.1418 19.8233 72.0451 19.7269C71.9807 19.6305 72.1418 19.5341 72.1741 19.4378C72.0129 19.3735 72.0774 19.4699 71.9162 19.3735C71.8195 19.3414 71.9807 19.0843 71.9807 18.988C71.8195 19.2129 71.6261 19.3092 71.4327 19.3735C71.5938 19.1165 71.6905 18.8594 71.6905 18.5703C71.4327 18.8916 71.1103 19.1165 70.7557 19.3092C71.0136 18.7631 71.207 18.1847 71.2393 17.6064C70.9814 17.7992 70.659 17.8956 70.3044 17.9598C70.5623 17.7671 70.788 17.5422 70.8847 17.2851C70.5301 17.4137 70.1433 17.4779 69.7564 17.4779C70.0788 17.253 70.3689 16.996 70.5623 16.7068C70.1755 16.8353 69.7887 16.8675 69.3696 16.7711C69.692 16.6104 69.9821 16.4177 70.2077 16.1606C69.9821 16.1928 69.7564 16.1928 69.5308 16.2249C69.4341 16.2249 67.6612 16.4498 66.9198 15.8072C67.8223 15.8072 68.6927 15.743 69.5308 15.5823C69.8531 15.5181 70.2722 15.4217 70.5946 15.3574C71.1425 15.1968 72.0774 14.6185 72.4319 14.3936C71.4004 14.5863 69.4663 14.5863 68.4993 14.3936C68.7572 14.2329 68.9183 14.0402 68.9506 13.7831C68.6282 13.8474 68.2736 13.9116 67.9191 13.9759C68.1769 13.5582 68.3059 13.1406 68.3381 12.6908C67.9191 13.0763 67.3066 13.3333 66.6297 13.5582C67.0809 12.9157 67.4033 12.2731 67.5645 11.5663C67.1132 12.0482 66.5652 12.4659 65.7915 12.7229C66.0817 12.2731 66.3073 11.7912 66.3718 11.2771C66.0817 11.502 65.7271 11.6305 65.3725 11.759C65.6626 11.3414 65.9205 10.9237 66.0817 10.506C65.7915 10.6345 65.5014 10.6988 65.1791 10.6988C65.4692 10.4418 65.7271 10.1847 65.9205 9.92771C65.5981 10.0241 65.2758 10.0241 64.9212 9.95984C65.2113 9.76707 65.5014 9.54217 65.7271 9.28514C65.4047 9.3494 65.0501 9.3494 64.7278 9.31727C64.889 9.15663 65.1146 8.99598 65.2758 8.80321C65.437 8.61044 65.5659 8.41767 65.7271 8.2249C65.308 8.35341 64.889 8.38554 64.5021 8.35341C64.7278 8.19277 64.9212 8 65.0501 7.74297C64.7278 7.80723 64.4054 7.87149 64.0831 7.87149C63.6963 7.87149 63.3417 7.83936 62.9549 7.80723C63.1483 7.61446 63.3417 7.45382 63.5673 7.26104C63.5351 7.26104 63.5351 7.26104 63.5029 7.26104C63.3417 7.26104 63.1805 7.29317 63.0516 7.3253C62.8582 7.35743 62.697 7.3253 62.5358 7.29317C62.3746 7.26104 62.2135 7.19679 62.1168 7.13253C61.9556 7.03614 61.8911 7.00402 61.8589 6.84337V6.81125C61.6977 6.81125 61.5688 6.77912 61.4721 6.6506C61.3109 6.61847 61.1497 6.77912 60.9241 6.71486C60.8918 6.71486 60.8274 6.68273 60.7951 6.68273C60.4083 6.71486 60.2794 6.84337 59.6024 6.77912C58.9577 6.71486 58.6676 6.6506 58.1841 6.52209C58.6676 6.39357 59.1511 6.26506 59.6347 6.13655C59.9893 6.07229 60.505 5.91165 60.6984 5.87952C60.8274 5.84739 60.9563 5.87952 60.9563 5.68675C60.4405 5.71888 59.9248 5.71888 59.4413 5.751C59.4413 5.71888 59.409 5.68675 59.409 5.65462C59.3446 5.68675 59.3123 5.751 59.2478 5.78313C59.1189 5.81526 58.6676 5.78313 58.5064 5.751C58.3453 5.751 57.6683 5.751 57.5716 5.71888C57.5716 5.68675 57.5716 5.62249 57.5716 5.59036C57.3138 5.78313 57.4104 5.751 57.0236 5.68675C56.9269 5.68675 56.798 5.65462 56.7013 5.62249C56.6046 5.59036 56.4756 5.62249 56.3789 5.55823C56.4112 5.46185 56.4756 5.42972 56.4756 5.33333C56.4112 5.36546 56.3145 5.46185 56.2178 5.5261C56.0888 5.62249 56.0566 5.62249 55.8632 5.59036C55.7342 5.59036 55.1862 5.55823 55.1218 5.46185C55.1218 5.39759 55.1218 5.42972 55.1862 5.39759C55.2829 5.33333 55.4119 5.33333 55.5408 5.30121C56.25 5.14056 57.4427 5.01205 58.1519 4.97992C58.442 4.97992 58.99 4.94779 59.2801 4.91566C59.8281 4.85141 60.4083 4.85141 60.9241 4.81928C61.1497 4.81928 61.2787 4.85141 61.2787 4.72289C61.3109 4.56225 61.1497 4.65863 60.9563 4.62651C60.8918 4.62651 60.7951 4.59438 60.6984 4.59438C60.1827 4.56225 59.6347 4.46586 59.1189 4.46586C59.1189 4.36948 59.1834 4.36948 59.2156 4.27309C59.0222 4.36948 58.99 4.49799 58.7321 4.49799C58.5387 4.46586 58.313 4.46586 58.1196 4.43374C57.9262 4.40161 57.7006 4.36948 57.5072 4.36948C57.346 4.33735 57.0236 4.33735 56.8947 4.30522C56.9914 4.24096 57.217 4.08032 57.3138 4.04819C57.2815 4.01606 57.217 4.08032 57.1526 4.08032C56.5401 4.33735 56.7013 4.30522 55.9599 4.24096C55.7665 4.24096 54.606 4.14458 54.5415 4.01606C54.5738 3.91968 54.7672 3.88755 54.8639 3.85542C55.8309 3.63052 56.8625 3.66265 57.8617 3.72691C58.442 3.75904 59.0222 3.79116 59.5702 3.82329C59.8925 3.85542 61.0852 3.95181 61.2787 3.91968C61.3109 3.85542 61.3431 3.75904 61.2464 3.75904C61.2142 3.75904 61.0852 3.72691 61.0208 3.72691C60.0215 3.63052 59.1189 3.46988 58.1519 3.30924C57.6039 3.21285 57.0559 3.14859 56.5079 3.05221C56.2178 3.02008 55.0573 2.92369 54.8961 2.79518C54.9284 2.73092 54.9928 2.66667 55.0251 2.63454C54.9928 2.60241 54.8317 2.6988 54.7672 2.76305C54.6705 2.82731 54.5738 2.76305 54.4448 2.76305C54.4448 2.66667 54.5093 2.63454 54.5093 2.57028C54.4771 2.57028 54.3159 2.66667 54.2514 2.6988C54.1547 2.73092 53.5423 2.57028 53.4133 2.50602C53.3811 2.4739 53.3811 2.50602 53.3811 2.44177L54.3159 2.34538C55.7342 2.249 57.4427 2.60241 58.8288 2.79518C59.1189 2.82731 59.409 2.89157 59.6669 2.9237C59.6991 2.9237 60.505 3.08434 60.5372 3.05221C60.634 2.95582 60.3438 2.9237 60.3116 2.9237L59.3123 2.6988C58.861 2.57028 58.4097 2.50602 57.9585 2.44177C57.5072 2.34538 57.0236 2.28112 56.5723 2.18474C56.1855 2.12048 55.7987 1.99197 55.4119 1.89558C55.3797 1.89558 55.3474 1.89558 55.3474 1.86345C55.2829 1.83133 55.3152 1.86345 55.2829 1.83133C55.3152 1.76707 55.283 1.83133 55.3152 1.76707C55.3474 1.73494 55.3152 1.76707 55.3474 1.70281C55.1862 1.83133 55.1862 1.83133 54.9606 1.76707C54.8317 1.73494 54.6705 1.70281 54.5415 1.63855C54.3804 1.60643 54.2514 1.54217 54.1225 1.51004C54.0258 1.47791 53.8001 1.41365 53.7357 1.3494C53.8968 1.22088 55.3474 1.31727 55.5408 1.3494C56.0888 1.44578 56.6046 1.54217 57.1203 1.67068L60.7629 2.4739C61.0208 2.53815 62.149 2.79518 62.3102 2.79518C61.8911 2.66667 61.4076 2.53815 60.9563 2.37751L58.2808 1.51004C58.0552 1.41365 57.1203 1.1245 56.9914 1.06024C56.9914 0.995984 57.0236 0.963855 57.0559 0.899598C56.8302 1.02811 56.7335 0.931727 56.5079 0.835341C56.2822 0.738956 55.154 0.2249 55.1218 0C55.2829 0.0321285 55.5086 0.0963855 55.6375 0.128514C56.1533 0.257028 56.6691 0.449799 57.1526 0.578313C57.8295 0.771084 58.442 1.06024 59.0867 1.25301L61.0208 1.92771C61.5043 2.08835 61.9878 2.249 62.5036 2.44177C63.0838 2.66667 64.5021 2.98795 65.1146 3.08434C65.4692 3.14859 65.856 3.24498 66.2106 3.27711C66.2751 3.27711 66.3395 3.27711 66.404 3.30924L70.7235 4.24096C71.3037 4.33735 71.8839 4.43374 72.4642 4.53012C71.9484 4.17671 71.0781 3.72691 70.2722 3.37349C70.0788 3.30924 69.8209 3.18072 69.6597 3.08434C70.0466 3.08434 70.4656 3.08434 70.8202 3.11647C71.207 3.14859 71.5938 3.18072 71.9484 3.30924C72.3675 3.43775 72.7543 3.63052 73.1411 3.82329C73.3023 3.88755 73.4957 3.95181 73.6569 4.04819C73.947 4.17671 74.2693 4.33735 74.5272 4.46586C74.7206 4.59438 75.6554 5.14056 75.8488 5.14056C75.9133 5.23695 76.5258 5.36546 76.6547 5.42972C76.7837 5.49398 76.7837 5.55823 76.8804 5.59036C76.9126 5.65462 76.9771 5.751 77.0093 5.81526C77.1382 6.10442 77.2672 6.36145 77.1382 6.71486C76.8804 7.45381 75.4298 8 75.6232 9.60643C75.7521 10.5703 76.0423 11.1486 76.5903 11.5984C76.8804 11.8554 77.2672 11.8876 77.7185 11.9518C77.9119 11.9839 78.1375 12.0482 78.3309 12.0803C78.5244 12.1446 78.4599 12.1125 78.75 11.8554C79.298 11.3735 79.7815 10.9558 80.394 10.506C80.8775 10.1526 81.1999 9.89558 81.6511 9.51004C81.7801 9.41366 81.909 9.28514 82.0702 9.18876C82.3603 8.99598 82.6827 8.80321 83.0372 8.64257C83.3596 8.48193 83.7142 8.32129 84.0688 8.19277C84.4556 8.06426 85.4871 7.71084 85.8739 7.83936C86.0351 7.90361 86.2285 8.03213 86.2285 8.19277C86.164 8.25703 85.9706 8.25703 85.9384 8.35341C86.1318 8.35341 86.8087 8.4498 86.4864 8.70683C86.4219 8.73896 86.3574 8.73896 86.3252 8.77108C86.3252 8.80321 86.3574 8.80321 86.3574 8.80321L86.5509 8.86747L87.1633 9.44578L87.3567 9.7992L86.2607 9.51004L86.7443 10.1205ZM77.1382 20.4337C77.106 20.4016 77.0738 20.3695 77.0415 20.3373C76.9771 20.4016 76.9126 20.8514 76.8804 20.9799C76.6547 21.5261 76.7837 21.2369 76.8804 21.5904C76.8159 21.5904 76.8159 21.5582 76.7514 21.5261C76.7514 21.6225 76.8804 21.8153 76.9448 21.8795C77.0093 21.9759 77.1383 22.1044 77.2672 22.1365C77.235 21.8474 77.106 21.5904 77.5251 21.3655C77.654 21.3012 77.5573 21.3012 77.7507 21.2048C77.9441 21.1406 78.1698 21.0442 78.0086 20.7871C77.9441 20.6908 77.7185 20.4337 77.6218 20.4337C77.5895 20.4659 77.5573 20.5622 77.5573 20.6265C77.5251 20.6265 77.5251 20.5944 77.5251 20.5944C77.4928 20.5622 77.5251 20.5623 77.4284 20.5623C77.3961 20.5623 77.3317 20.4016 77.2994 20.3695C77.235 20.4016 77.2994 20.4337 77.235 20.4659C77.2027 20.5301 77.1705 20.498 77.1382 20.4337ZM55.5731 10.5703H55.4441C55.2829 9.92771 55.1218 9.54217 54.9928 9.41365C54.8639 9.28514 54.5738 9.25301 54.1225 9.25301H49.8997V15.004H53.8324C54.2192 15.004 54.4771 14.9719 54.5738 14.9076C54.6705 14.8434 54.735 14.7149 54.735 14.5863H54.8639V15.8072H54.735C54.7027 15.6466 54.6382 15.5181 54.5415 15.4538C54.4448 15.3896 54.2514 15.3574 53.9613 15.3574H49.9319V19.3092C49.9319 19.9197 49.9964 20.3373 50.0931 20.5944C50.1898 20.8514 50.3832 21.012 50.6089 21.0763C50.8345 21.1406 51.2213 21.1727 51.7049 21.1727H53.9613C54.6705 21.1727 55.1218 21.1406 55.3474 21.1084C55.5408 21.0442 55.702 20.9478 55.8632 20.8193C55.9921 20.6586 56.1211 20.3373 56.1855 19.8554H56.3145V21.6225H47.5788V21.494C47.8689 21.4618 48.0946 21.4297 48.2557 21.3333C48.4169 21.2369 48.4814 20.9799 48.4814 20.5944V10.249C48.4814 9.76707 48.4491 9.44578 48.3524 9.25301C48.2557 9.06024 47.9979 8.96386 47.5788 8.96386V8.80321H55.6053V10.5703H55.5731ZM43.9362 21.494C44.3231 21.494 44.5165 21.3333 44.5165 20.9478C44.5165 20.8514 44.4842 20.6908 44.452 20.4337L43.1304 11.0201L38.553 21.6225H38.4563L33.8467 11.0201L32.5573 20.4659C32.5251 20.5944 32.5251 20.7871 32.5251 20.9478C32.5251 21.2691 32.7185 21.4618 33.1053 21.4618V21.5904H31.139V21.4618C31.4291 21.4618 31.6225 21.4297 31.7192 21.3655C31.8159 21.3012 31.8804 21.1727 31.9126 21.012C31.9448 20.8514 32.0093 20.6908 32.0093 20.4659L33.4599 10.1205C33.2342 9.54217 32.9764 9.18876 32.7507 9.09237C32.5251 8.96386 32.2994 8.93173 32.0738 8.93173V8.80321H34.4914L39.0043 19.2771L43.5172 8.80321H45.548V8.93173C44.8711 8.96386 44.5165 9.31727 44.5165 9.99197C44.5165 10.1526 44.5487 10.3454 44.5809 10.6024L45.9348 20.3052C46.0315 20.7871 46.096 21.1084 46.1927 21.2369C46.2894 21.3655 46.515 21.4618 46.8374 21.494V21.6225H43.9685V21.494H43.9362ZM23.2736 21.8153C21.5007 21.8153 20.0501 21.2369 18.9219 20.0803C17.7937 18.9237 17.2135 17.5422 17.2135 15.9036C17.2135 14.8112 17.4713 13.6867 18.0193 12.5301C18.5673 11.3735 19.3732 10.4418 20.4692 9.70281C21.5652 8.96386 22.8546 8.61044 24.3696 8.61044C26.1748 8.61044 27.6254 9.15663 28.7858 10.249C29.914 11.3414 30.4943 12.6908 30.4943 14.3293C30.4943 16.4177 29.8496 18.2169 28.5279 19.6305C27.2063 21.0763 25.4656 21.8153 23.2736 21.8153ZM29.7206 15.9036C29.7206 14.6506 29.3983 13.5261 28.7213 12.5301C28.0444 11.502 27.2063 10.7309 26.1425 10.1526C25.0788 9.5743 24.1117 9.28514 23.2092 9.28514C21.952 9.28514 20.7915 9.76707 19.76 10.7309C18.7285 11.6948 18.2127 12.8835 18.2127 14.2972C18.2127 16.0964 18.8574 17.7028 20.1146 19.0843C21.3718 20.4659 22.7901 21.1406 24.3696 21.1406C25.24 21.1406 26.1103 20.9157 26.9807 20.4337C27.851 19.9518 28.5279 19.3092 29.0115 18.4739C29.4627 17.6386 29.7206 16.8032 29.7206 15.9036ZM14.7636 23.2289C14.6024 23.3896 14.5057 23.7108 14.5057 24.1928V30.8755H23.8861V24.7711C23.8861 24.0643 23.8216 23.6145 23.6927 23.3574C23.5638 23.1004 23.2414 22.9719 22.6934 22.9719V22.8112H27.0451V22.9719C26.6905 22.9719 26.4327 23.004 26.2715 23.1004C26.1103 23.1968 25.9814 23.2932 25.9169 23.4859C25.8524 23.6466 25.8202 24.0964 25.8202 24.7711V37.8795C25.8202 38.5542 25.8524 38.9719 25.9169 39.1325C25.9814 39.2932 26.0781 39.4217 26.2393 39.5502C26.4004 39.6466 26.6583 39.7108 27.0451 39.7108V39.8715H22.6934V39.6787C23.1769 39.6787 23.467 39.5823 23.6282 39.3896C23.7894 39.1968 23.8539 38.6827 23.8539 37.8153V31.3253H14.5057V37.8795C14.5057 38.49 14.538 38.8755 14.6024 39.0683C14.6669 39.2289 14.7636 39.3896 14.9248 39.4859C15.086 39.6145 15.3438 39.6466 15.7629 39.6466V39.8072H11.3467V39.6787C12.1526 39.743 12.5394 39.3574 12.5394 38.5221V24.7711C12.5394 24 12.4749 23.4859 12.346 23.2932C12.217 23.1004 11.8947 22.9719 11.3467 22.9398V22.7791H15.7629V22.9398C15.2471 22.9719 14.9248 23.0683 14.7636 23.2289ZM11.3467 21.4297C11.8302 21.4297 12.1203 21.3333 12.2815 21.1406C12.4427 20.9478 12.5072 20.4337 12.5072 19.5663V13.1084H3.15903V19.6627C3.15903 20.2731 3.19126 20.6586 3.25573 20.8514C3.3202 21.012 3.41691 21.1727 3.57808 21.2691C3.73925 21.3976 3.99713 21.4297 4.41619 21.4297V21.5904H0V21.4297C0.805874 21.494 1.19269 21.1084 1.19269 20.2731V6.55422C1.19269 5.78313 1.12822 5.26908 0.999284 5.0763C0.870344 4.88353 0.547994 4.75502 0 4.72289V4.56225H4.41619V4.72289C3.93266 4.75502 3.61032 4.85141 3.41691 5.01205C3.25573 5.17269 3.15903 5.49398 3.15903 5.9759V12.6586H12.5394V6.55422C12.5394 5.84739 12.4749 5.39759 12.346 5.14056C12.217 4.88353 11.8947 4.75502 11.3467 4.75502V4.59438H15.6984V4.75502C15.3438 4.75502 15.086 4.78715 14.9248 4.88353C14.7636 4.97992 14.6347 5.0763 14.5702 5.26908C14.5057 5.42972 14.4735 5.87952 14.4735 6.55422V19.6627C14.4735 20.3374 14.5057 20.755 14.5702 20.9157C14.6347 21.0763 14.7314 21.2048 14.8925 21.3333C15.0537 21.4297 15.3116 21.494 15.6984 21.494V21.6546H11.3467V21.4297ZM32.106 27.1807C31.7514 27.1807 31.4935 27.245 31.3324 27.3414C31.1712 27.4699 31.1067 27.7269 31.1067 28.1446V35.1807C31.1067 36.6586 31.4613 37.6867 32.1382 38.3293C32.8152 38.9719 33.6211 39.261 34.4914 39.261C35.8775 39.261 37.1024 38.6506 38.1662 37.3976V28.7229C38.1662 27.9518 38.1017 27.502 37.9728 27.3735C37.8438 27.245 37.6182 27.1486 37.3603 27.1486H37.2314V27.0201H40.616V27.1486C40.197 27.1807 39.9391 27.245 39.8424 27.3414C39.7457 27.4699 39.6812 27.6627 39.6812 28.0161V38.4257C39.6812 38.8434 39.7135 39.1004 39.7457 39.2289C39.7779 39.3574 39.8746 39.4538 40.0036 39.5502C40.1325 39.6466 40.3259 39.6787 40.6483 39.6787V39.8072H38.2307V37.8474C37.0057 39.2289 35.5229 39.9036 33.8145 39.9036C32.5573 39.9036 31.558 39.5502 30.7844 38.8434C30.043 38.1365 29.6562 37.1406 29.6562 35.8876V28.241C29.6562 27.7912 29.5917 27.4699 29.495 27.3735C29.3983 27.245 29.1404 27.1807 28.7213 27.1807V27.0522H32.106V27.1807ZM53.4456 37.2691V28.2088C53.4456 27.7269 53.3489 27.4378 53.1877 27.3092C53.0265 27.2129 52.8009 27.1486 52.5107 27.1486V27.0201H54.9928V27.1486C54.606 27.1486 54.3481 27.245 54.2192 27.3735C54.0903 27.5341 53.9935 27.8233 53.9935 28.3052V40L43.7751 29.1406V38.6185C43.7751 38.9076 43.8073 39.1325 43.8395 39.2932C43.8718 39.4538 43.9362 39.5502 44.033 39.5823C44.1297 39.6466 44.3231 39.6787 44.6777 39.743V39.8715H42.2278V39.743C42.6791 39.743 42.937 39.6787 43.0337 39.5181C43.1304 39.3574 43.1948 39.004 43.1948 38.3936V29.6867C43.1948 28.9157 43.0981 28.3052 42.8725 27.8233C42.6468 27.3414 42.1633 27.1165 41.4219 27.1486V27.0201H43.8395L53.4456 37.2691ZM56.0244 26.988C56.1211 27.0201 56.3467 27.0522 56.6691 27.0522H65.1468C65.4692 27.0522 65.7271 27.0201 65.856 26.988C66.0172 26.9558 66.1139 26.8273 66.1784 26.6024H66.3073L65.6948 28.1446H65.5659C65.5981 28.0482 65.5981 27.9197 65.5981 27.759C65.5981 27.6305 65.5659 27.5341 65.4692 27.502C65.3725 27.4699 65.2113 27.4378 65.0179 27.4378H61.6977V38.3936C61.6977 38.8434 61.7299 39.1647 61.7944 39.3253C61.8589 39.4859 61.9556 39.5823 62.0845 39.6466C62.2135 39.6787 62.4069 39.7108 62.697 39.7108V39.8394H59.2478V39.7108C59.6669 39.6787 59.957 39.5823 60.0537 39.4538C60.1504 39.3253 60.2149 39.0361 60.2149 38.5863V27.4699H57.0236C56.7013 27.4699 56.4756 27.502 56.3789 27.5341C56.2822 27.5663 56.2178 27.6626 56.2178 27.8233C56.2178 27.8876 56.25 28.0161 56.2822 28.1767H56.1533L55.5408 26.6345H55.6698C55.8309 26.7952 55.9276 26.9237 56.0244 26.988ZM75.0752 28.8193H74.9463C74.7851 28.1767 74.6239 27.7912 74.495 27.6626C74.366 27.5341 74.0759 27.502 73.6246 27.502H69.4019V33.253H73.3345C73.7213 33.253 73.9792 33.2209 74.0759 33.1566C74.1726 33.0924 74.2371 32.9639 74.2371 32.8353H74.366V34.0562H74.2371C74.2049 33.8956 74.1404 33.7671 74.0437 33.7028C73.947 33.6386 73.7536 33.6064 73.4635 33.6064H69.4341V37.5582C69.4341 38.1687 69.4986 38.5863 69.5953 38.8434C69.692 39.1004 69.8854 39.261 70.111 39.3253C70.3367 39.3896 70.7235 39.4217 71.207 39.4217H73.4635C74.1726 39.4217 74.6239 39.3896 74.8496 39.3574C75.043 39.2932 75.2041 39.1968 75.3653 39.0683C75.4943 38.9076 75.6232 38.5863 75.6877 38.1044H75.8166V39.8715H67.0809V39.743C67.3711 39.7108 67.5967 39.6787 67.7579 39.5823C67.9191 39.4859 67.9835 39.2289 67.9835 38.8434V28.4659C67.9835 27.9839 67.9513 27.6627 67.8546 27.4699C67.7579 27.2771 67.5 27.1807 67.0809 27.1807V27.0201H75.1074V28.8193H75.0752Z" fill="#5947B3"/>
</svg>
