<svg width="28" height="28" viewBox="0 0 28 28" fill="none" xmlns="http://www.w3.org/2000/svg">
<path fill-rule="evenodd" clip-rule="evenodd" d="M14 28C6.27879 28 0 21.7212 0 14C0 6.27879 6.27879 0 14 0C21.7212 0 28 6.27879 28 14C28 21.7212 21.7212 28 14 28ZM21.8061 10.4364C21.6646 9.24848 20.9576 8.51313 19.7414 8.4C18.3838 8.28687 15.3576 8.20202 13.9717 8.20202C11.1152 8.20202 9.84242 8.25859 8.48485 8.4C7.18384 8.54141 6.61818 9.10707 6.4202 10.2949C6.27879 11.1152 6.19394 11.9071 6.19394 13.7455C6.19394 15.3859 6.27879 16.4323 6.39192 17.3091C6.56162 18.497 7.38182 19.1758 8.5697 19.2889C9.98384 19.402 12.7838 19.4586 14.1697 19.4586C15.499 19.4586 18.5253 19.402 19.8545 19.2323C21.0424 19.0909 21.6364 18.4687 21.8061 17.2808C21.8061 17.2808 22.004 15.9798 22.004 13.7455C22.004 12.4444 21.9192 11.2566 21.8061 10.4364ZM12.4162 11.4828L16.7434 13.7455L12.4162 16.0364V11.4828Z" fill="#CF3427"/>
</svg>
